PathFileType	4	(X/Y/Z)	S:\OneDrive - The University of Tokyo\ìåëÂéˆã∆\ÉoÉCÉÅÉJ\ë™íË\hirabayashi_2\Trimmed\Trimmed_BarR1Hirabayashi1.trc
DataRate	CameraRate	NumFrames	NumMarkers	Units	OrigDataRate	OrigDataStartFrame	OrigNumFrames
200.00	200.00	       19	12	mm	200.00	327	       373
Frame#	Time	BarR0			BarR50			BarR100			BarR130			BarR180			BarR230			BarL0			BarL50			BarL100			BarL130			BarL180			BarL230			
		X1	Y1	Z1	X2	Y2	Z2	X3	Y3	Z3	X4	Y4	Z4	X5	Y5	Z5	X6	Y6	Z6	X7	Y7	Z7	X8	Y8	Z8	X9	Y9	Z9	X10	Y10	Z10	X11	Y11	Z11	X12	Y12	Z12	

327	1.630	-578.56580	2752.48950	1663.79407	-606.25629	2303.65771	1643.07605	-639.75598	1850.73853	1630.03821	-662.33270	1349.25464	1630.15417	-691.01508	903.47308	1643.86377	-714.93158	456.33456	1663.70483	-1114.16687	2808.02051	1664.46558	-1141.06543	2356.21655	1667.47559	-1171.42419	1905.88013	1668.33167	-1199.01257	1403.95740	1668.81628	-1226.82593	952.47833	1667.90637	-1244.85474	506.17859	1667.27319	
328	1.635	-578.56750	2752.48169	1663.79114	-606.23505	2303.63135	1643.04736	-639.76910	1850.75549	1629.98315	-662.32428	1349.23022	1630.11304	-691.02399	903.50513	1643.82825	-714.94586	456.34946	1663.70081	-1114.17297	2808.04834	1664.48645	-1141.04858	2356.21240	1667.45984	-1171.44580	1905.86914	1668.34656	-1199.01660	1403.98328	1668.82031	-1226.81067	952.49530	1667.90967	-1244.86243	506.21570	1667.27747	
329	1.640	-578.55414	2752.49512	1663.77942	-606.24573	2303.63257	1643.02771	-639.78137	1850.73657	1629.95227	-662.32574	1349.25488	1630.07446	-691.02826	903.52875	1643.82495	-714.94556	456.34647	1663.69238	-1114.15002	2808.03809	1664.48608	-1141.04688	2356.21313	1667.47693	-1171.41699	1905.88049	1668.33752	-1198.95728	1404.02271	1668.84412	-1226.81104	952.50763	1667.90967	-1244.85400	506.18762	1667.26331	
330	1.645	-578.54681	2752.48779	1663.79919	-606.25208	2303.63013	1643.00732	-639.78802	1850.73950	1629.88062	-662.34918	1349.26782	1630.04517	-691.09338	903.47711	1643.57434	-714.91534	456.35684	1663.70154	-1114.18066	2808.03369	1664.47717	-1141.04150	2356.22241	1667.47583	-1171.40918	1905.87158	1668.34937	-1198.95105	1404.04785	1668.85242	-1226.80652	952.48895	1667.92249	-1244.84314	506.19638	1667.27515	
331	1.650	-578.54865	2752.49634	1663.79187	-606.24713	2303.63574	1642.99841	-639.80334	1850.76587	1629.86438	-662.36536	1349.27161	1630.02832	-691.02710	903.53552	1643.79346	-714.93256	456.34760	1663.70728	-1114.25818	2808.04858	1664.47144	-1141.06653	2356.22119	1667.47449	-1171.42883	1905.89136	1668.34863	-1198.96887	1404.06250	1668.84436	-1226.80371	952.50037	1667.91455	-1244.84143	506.20059	1667.28088	
332	1.655	-578.54205	2752.48950	1663.79541	-606.26947	2303.65137	1643.00598	-639.78412	1850.74731	1629.84766	-662.35425	1349.27576	1630.00342	-691.08307	903.46674	1643.53430	-714.93274	456.37772	1663.69189	-1114.25903	2808.04541	1664.45410	-1141.05188	2356.20752	1667.48181	-1171.45215	1905.90381	1668.35559	-1198.98108	1404.07227	1668.83459	-1226.83179	952.49261	1667.90759	-1244.84058	506.20865	1667.27295	
333	1.660	-578.54456	2752.49072	1663.79736	-606.23407	2303.63281	1642.99060	-639.80444	1850.74536	1629.82092	-662.35339	1349.26013	1629.98376	-691.01813	903.58191	1643.74182	-714.92877	456.36917	1663.69202	-1114.27112	2808.00366	1664.45654	-1141.09106	2356.22485	1667.47217	-1171.45398	1905.90747	1668.36206	-1199.01953	1404.00037	1668.81836	-1226.83215	952.50470	1667.91443	-1244.85193	506.22272	1667.27991	
334	1.665	-578.55359	2752.51025	1663.79590	-606.24188	2303.61523	1642.96875	-639.78918	1850.73669	1629.78662	-662.35645	1349.26819	1629.98425	-691.00989	903.55927	1643.76331	-714.91931	456.36771	1663.69922	-1114.20911	2808.04150	1664.47217	-1141.09802	2356.23364	1667.49084	-1171.46667	1905.88721	1668.35156	-1199.03772	1403.98840	1668.82275	-1226.84778	952.47919	1667.91492	-1244.86987	506.19705	1667.27869	
335	1.670	-578.55072	2752.47729	1663.80469	-606.23096	2303.63232	1642.97424	-639.80145	1850.75818	1629.75208	-662.33624	1349.26709	1629.98596	-691.05792	903.53442	1643.52087	-714.92236	456.38318	1663.69666	-1114.24670	2808.03931	1664.47449	-1141.12207	2356.20947	1667.48352	-1171.46948	1905.86829	1668.35303	-1199.02026	1404.01050	1668.84009	-1226.85217	952.50549	1667.91125	-1244.87170	506.21378	1667.28442	
336	1.675	-578.55646	2752.50586	1663.79626	-606.24658	2303.63208	1642.96301	-639.78644	1850.75916	1629.81482	-662.35370	1349.26941	1629.96399	-690.99847	903.53088	1643.74927	-714.91730	456.36832	1663.70789	-1114.26025	2808.03149	1664.46045	-1141.10327	2356.22827	1667.47253	-1171.47314	1905.87573	1668.34875	-1199.06079	1404.01184	1668.80994	-1226.85254	952.48608	1667.90991	-1244.87292	506.20889	1667.28271	
337	1.680	-578.53906	2752.48706	1663.79211	-606.24908	2303.62354	1642.97083	-639.78436	1850.75085	1629.78760	-662.33716	1349.25989	1629.96667	-691.07733	903.45331	1643.52234	-714.90302	456.33578	1663.70581	-1114.21814	2808.03247	1664.47290	-1141.11426	2356.21973	1667.46631	-1171.46509	1905.86768	1668.35315	-1199.01746	1404.01379	1668.85217	-1226.85803	952.50464	1667.89478	-1244.89490	506.21259	1667.27893	
338	1.685	-578.55359	2752.48999	1663.79224	-606.23914	2303.61646	1642.98779	-639.81512	1850.75647	1629.79175	-662.35114	1349.25586	1629.97498	-691.00323	903.52252	1643.76538	-714.92462	456.36472	1663.70337	-1114.21667	2808.02417	1664.46777	-1141.11792	2356.21509	1667.48071	-1171.47437	1905.89294	1668.36670	-1199.03577	1403.99548	1668.82227	-1226.85767	952.50244	1667.91467	-1244.88904	506.19476	1667.28784	
339	1.690	-578.55566	2752.49048	1663.80188	-606.25073	2303.62671	1642.97327	-639.82880	1850.74402	1629.78577	-662.38031	1349.24890	1629.97400	-691.03314	903.52789	1643.74817	-714.94067	456.36084	1663.69678	-1114.21350	2808.02075	1664.47144	-1141.08789	2356.22705	1667.48645	-1171.44385	1905.88391	1668.35559	-1199.01782	1404.00732	1668.82690	-1226.83997	952.48621	1667.90723	-1244.88464	506.20142	1667.26929	
340	1.695	-578.53760	2752.46704	1663.79919	-606.25586	2303.62378	1642.97473	-639.85699	1850.76306	1629.79822	-662.40948	1349.23877	1629.98962	-691.06476	903.52856	1643.73413	-714.93512	456.35477	1663.68884	-1114.18445	2808.02344	1664.47144	-1141.04565	2356.20044	1667.47913	-1171.44812	1905.88171	1668.35400	-1199.00720	1404.00720	1668.82300	-1226.83008	952.50061	1667.89453	-1244.87000	506.21078	1667.27209	
341	1.700	-578.56085	2752.47144	1663.79932	-606.26837	2303.62866	1642.97339	-639.86957	1850.76990	1629.81860	-662.44574	1349.27039	1629.99487	-691.07672	903.49670	1643.76611	-714.93427	456.35294	1663.70190	-1114.20056	2808.01367	1664.47253	-1141.09045	2356.18262	1667.48743	-1171.43750	1905.90356	1668.36243	-1198.97803	1404.01538	1668.83850	-1226.82397	952.48749	1667.91785	-1244.85059	506.18604	1667.29065	
342	1.705	-578.56024	2752.50610	1663.79028	-606.29218	2303.63599	1642.98975	-639.86768	1850.75037	1629.83728	-662.45935	1349.28088	1629.99036	-691.10956	903.53455	1643.79419	-714.94629	456.37466	1663.70764	-1114.16028	2808.03857	1664.48022	-1141.05542	2356.20801	1667.46545	-1171.41602	1905.87781	1668.34656	-1198.99878	1404.01440	1668.81897	-1226.80994	952.47925	1667.90930	-1244.83789	506.19388	1667.27771	
343	1.710	-578.56122	2752.52539	1663.80847	-606.27496	2303.65869	1642.99194	-639.88263	1850.78601	1629.82251	-662.47046	1349.29126	1630.02283	-691.10236	903.57092	1643.76978	-714.97247	456.37735	1663.70764	-1114.21179	2808.00879	1664.46143	-1141.06384	2356.20044	1667.46973	-1171.43152	1905.88037	1668.34985	-1198.99268	1404.03247	1668.80200	-1226.82739	952.48474	1667.90125	-1244.82788	506.15881	1667.28943	
344	1.715	-578.58337	2752.51782	1663.78760	-606.27838	2303.65161	1643.01563	-639.87854	1850.77942	1629.85352	-662.48218	1349.29712	1629.99768	-691.12231	903.55225	1643.77197	-714.98224	456.36124	1663.68384	-1114.19324	2808.05005	1664.48560	-1141.08557	2356.20532	1667.45642	-1171.43652	1905.87329	1668.34216	-1198.99658	1404.02673	1668.82336	-1226.80518	952.48962	1667.90002	-1244.83948	506.21072	1667.28149	
345	1.720	-578.55792	2752.51709	1663.78333	-606.27582	2303.65894	1643.00916	-639.88611	1850.78186	1629.82605	-662.48090	1349.28809	1629.98743	-691.10590	903.56866	1643.76892	-714.98114	456.42331	1663.68958	-1114.21252	2808.02563	1664.47253	-1141.07666	2356.21289	1667.48572	-1171.42065	1905.88782	1668.35217	-1198.99243	1403.99951	1668.80933	-1226.81250	952.49652	1667.90186	-1244.81824	506.18268	1667.28711	
